<svg width="32" height="32" xmlns="http://www.w3.org/2000/svg">

 <g>
  <title>background</title>
  <rect fill="none" id="canvas_background" height="402" width="582" y="-1" x="-1"/>
 </g>
 <g>
  <title>Layer 1</title>
  <path stroke="null" fill="#a38b70" transform="rotate(-89.84265899658203 16.000062942504883,15.977063179016112) " id="svg_1" d="m2.318642,8.934888l27.362842,0c1.258691,0 2.280237,-1.051632 2.280237,-2.347392s-1.021546,-2.347392 -2.280237,-2.347392l-27.362842,0c-1.258691,0 -2.280237,1.051632 -2.280237,2.347392s1.021546,2.347392 2.280237,2.347392zm27.362842,4.694784l-27.362842,0c-1.258691,0 -2.280237,1.051632 -2.280237,2.347392s1.021546,2.347392 2.280237,2.347392l27.362842,0c1.258691,0 2.280237,-1.051632 2.280237,-2.347392s-1.021546,-2.347392 -2.280237,-2.347392zm0,9.389568l-27.362842,0c-1.258691,0 -2.280237,1.051632 -2.280237,2.347392s1.021546,2.347392 2.280237,2.347392l27.362842,0c1.258691,0 2.280237,-1.051632 2.280237,-2.347392s-1.021546,-2.347392 -2.280237,-2.347392z"/>
 </g>
</svg>