<svg width="32" height="32" xmlns="http://www.w3.org/2000/svg">

 <g>
  <title>background</title>
  <rect fill="none" id="canvas_background" height="402" width="582" y="-1" x="-1"/>
 </g>
 <g>
  <title>Layer 1</title>
  <path fill="#a38b70" stroke="null" id="svg_1" d="m25.099173,18.260703l-2.274793,0l0,-4.570724l2.274793,0c3.768195,0 6.82438,-3.070384 6.82438,-6.856086s-3.056185,-6.856086 -6.82438,-6.856086s-6.82438,3.070384 -6.82438,6.856086l0,2.285362l-4.549587,0l0,-2.285362c0,-3.785702 -3.056185,-6.856086 -6.82438,-6.856086s-6.82438,3.070384 -6.82438,6.856086s3.056185,6.856086 6.82438,6.856086l2.274793,0l0,4.570724l-2.274793,0c-3.768195,0 -6.82438,3.070384 -6.82438,6.856086s3.056185,6.856086 6.82438,6.856086s6.82438,-3.070384 6.82438,-6.856086l0,-2.285362l4.549587,0l0,2.285362c0,3.785702 3.056185,6.856086 6.82438,6.856086s6.82438,-3.070384 6.82438,-6.856086s-3.056185,-6.856086 -6.82438,-6.856086zm0,-13.712172c1.255686,0 2.274793,1.023842 2.274793,2.285362s-1.019107,2.285362 -2.274793,2.285362l-2.274793,0l0,-2.285362c0,-1.26152 1.019107,-2.285362 2.274793,-2.285362zm-20.47314,2.285362c0,-1.26152 1.019107,-2.285362 2.274793,-2.285362s2.274793,1.023842 2.274793,2.285362l0,2.285362l-2.274793,0c-1.255686,0 -2.274793,-1.023842 -2.274793,-2.285362zm2.274793,20.568257c-1.255686,0 -2.274793,-1.023842 -2.274793,-2.285362s1.019107,-2.285362 2.274793,-2.285362l2.274793,0l0,2.285362c0,1.26152 -1.019107,2.285362 -2.274793,2.285362zm6.82438,-9.141448l0,-4.570724l4.549587,0l0,4.570724l-4.549587,0zm11.373966,9.141448c-1.255686,0 -2.274793,-1.023842 -2.274793,-2.285362l0,-2.285362l2.274793,0c1.255686,0 2.274793,1.023842 2.274793,2.285362s-1.019107,2.285362 -2.274793,2.285362z"/>
 </g>
</svg>